<?xml version="1.0" encoding="UTF-8" standalone="no"?>
<!-- Created with Inkscape (http://www.inkscape.org/) -->

<svg
   xmlns:dc="http://purl.org/dc/elements/1.1/"
   xmlns:cc="http://creativecommons.org/ns#"
   xmlns:rdf="http://www.w3.org/1999/02/22-rdf-syntax-ns#"
   xmlns:svg="http://www.w3.org/2000/svg"
   xmlns="http://www.w3.org/2000/svg"
   xmlns:sodipodi="http://sodipodi.sourceforge.net/DTD/sodipodi-0.dtd"
   xmlns:inkscape="http://www.inkscape.org/namespaces/inkscape"
   id="svg2"
   version="1.1"
   inkscape:version="0.91 r"
   width="20"
   height="20"
   viewBox="0 0 20 20"
   sodipodi:docname="style_branch_open.svg">
  <metadata
     id="metadata8">
    <rdf:RDF>
      <cc:Work
         rdf:about="">
        <dc:format>image/svg+xml</dc:format>
        <dc:type
           rdf:resource="http://purl.org/dc/dcmitype/StillImage" />
        <dc:title></dc:title>
      </cc:Work>
    </rdf:RDF>
  </metadata>
  <defs
     id="defs6">
    <marker
       inkscape:stockid="Arrow1Mstart"
       orient="auto"
       refY="0"
       refX="0"
       id="Arrow1Mstart"
       style="overflow:visible"
       inkscape:isstock="true">
      <path
         id="path4194"
         d="M 0,0 5,-5 -12.5,0 5,5 0,0 Z"
         style="fill-rule:evenodd;stroke:#000000;stroke-width:1pt"
         transform="matrix(0.4,0,0,0.4,4,0)"
         inkscape:connector-curvature="0" />
    </marker>
    <marker
       inkscape:stockid="StopL"
       orient="auto"
       refY="0"
       refX="0"
       id="StopL"
       style="overflow:visible"
       inkscape:isstock="true">
      <path
         id="path4357"
         d="M 0,5.65 0,-5.65"
         style="fill:none;fill-opacity:0.75;fill-rule:evenodd;stroke:#000000;stroke-width:1pt"
         transform="scale(0.8,0.8)"
         inkscape:connector-curvature="0" />
    </marker>
  </defs>
  <sodipodi:namedview
     pagecolor="#ffffff"
     bordercolor="#666666"
     borderopacity="1"
     objecttolerance="10"
     gridtolerance="10"
     guidetolerance="10"
     inkscape:pageopacity="0"
     inkscape:pageshadow="2"
     inkscape:window-width="1680"
     inkscape:window-height="1026"
     id="namedview4"
     showgrid="true"
     showguides="true"
     inkscape:guide-bbox="true"
     inkscape:snap-object-midpoints="true"
     inkscape:snap-bbox="true"
     inkscape:snap-bbox-edge-midpoints="true"
     inkscape:zoom="26.222222"
     inkscape:cx="13.81566"
     inkscape:cy="10.245466"
     inkscape:window-x="0"
     inkscape:window-y="24"
     inkscape:window-maximized="1"
     inkscape:current-layer="layer1"
     showborder="true"
     inkscape:bbox-nodes="true">
    <sodipodi:guide
       position="0,4.5"
       orientation="0,1"
       id="guide4138" />
    <inkscape:grid
       type="xygrid"
       id="grid4182" />
  </sodipodi:namedview>
  <g
     inkscape:groupmode="layer"
     id="layer1"
     inkscape:label="Layer 1"
     style="display:inline"
     transform="translate(0,11)">
    <path
       style="color:#000000;display:inline;overflow:visible;visibility:visible;opacity:1;fill:#484848;fill-opacity:1;fill-rule:nonzero;stroke:none;stroke-width:1;stroke-linecap:butt;stroke-linejoin:miter;stroke-miterlimit:4;stroke-dasharray:none;stroke-opacity:1;marker:none;enable-background:accumulate"
       d="M 15.5 5 A 4.5 4.5 0 0 0 11 9.5 A 4.5 4.5 0 0 0 15.5 14 A 4.5 4.5 0 0 0 20 9.5 A 4.5 4.5 0 0 0 15.5 5 z M 15.5 6 A 3.5 3.5 0 0 1 15.849609 6.0175781 A 3.5 3.5 0 0 1 16.195312 6.0703125 A 3.5 3.5 0 0 1 16.535156 6.15625 A 3.5 3.5 0 0 1 16.863281 6.2753906 A 3.5 3.5 0 0 1 17.177734 6.4277344 A 3.5 3.5 0 0 1 17.476562 6.6113281 A 3.5 3.5 0 0 1 17.753906 6.8222656 A 3.5 3.5 0 0 1 18.011719 7.0625 A 3.5 3.5 0 0 1 18.242188 7.3242188 A 3.5 3.5 0 0 1 18.445312 7.609375 A 3.5 3.5 0 0 1 18.619141 7.9121094 A 3.5 3.5 0 0 1 18.761719 8.2324219 A 3.5 3.5 0 0 1 18.873047 8.5644531 A 3.5 3.5 0 0 1 18.949219 8.9042969 A 3.5 3.5 0 0 1 18.992188 9.2519531 A 3.5 3.5 0 0 1 19 9.5 A 3.5 3.5 0 0 1 18.982422 9.8496094 A 3.5 3.5 0 0 1 18.929688 10.195312 A 3.5 3.5 0 0 1 18.84375 10.535156 A 3.5 3.5 0 0 1 18.724609 10.863281 A 3.5 3.5 0 0 1 18.572266 11.177734 A 3.5 3.5 0 0 1 18.388672 11.476562 A 3.5 3.5 0 0 1 18.177734 11.753906 A 3.5 3.5 0 0 1 17.9375 12.011719 A 3.5 3.5 0 0 1 17.675781 12.242188 A 3.5 3.5 0 0 1 17.390625 12.445312 A 3.5 3.5 0 0 1 17.087891 12.619141 A 3.5 3.5 0 0 1 16.767578 12.761719 A 3.5 3.5 0 0 1 16.435547 12.873047 A 3.5 3.5 0 0 1 16.095703 12.949219 A 3.5 3.5 0 0 1 15.748047 12.992188 A 3.5 3.5 0 0 1 15.5 13 A 3.5 3.5 0 0 1 15.150391 12.982422 A 3.5 3.5 0 0 1 14.804688 12.929688 A 3.5 3.5 0 0 1 14.464844 12.84375 A 3.5 3.5 0 0 1 14.136719 12.724609 A 3.5 3.5 0 0 1 13.822266 12.572266 A 3.5 3.5 0 0 1 13.523438 12.388672 A 3.5 3.5 0 0 1 13.246094 12.177734 A 3.5 3.5 0 0 1 12.988281 11.9375 A 3.5 3.5 0 0 1 12.757812 11.675781 A 3.5 3.5 0 0 1 12.554688 11.390625 A 3.5 3.5 0 0 1 12.380859 11.087891 A 3.5 3.5 0 0 1 12.238281 10.767578 A 3.5 3.5 0 0 1 12.126953 10.435547 A 3.5 3.5 0 0 1 12.050781 10.095703 A 3.5 3.5 0 0 1 12.007812 9.7480469 A 3.5 3.5 0 0 1 12 9.5 A 3.5 3.5 0 0 1 12.017578 9.1503906 A 3.5 3.5 0 0 1 12.070312 8.8046875 A 3.5 3.5 0 0 1 12.15625 8.4648438 A 3.5 3.5 0 0 1 12.275391 8.1367188 A 3.5 3.5 0 0 1 12.427734 7.8222656 A 3.5 3.5 0 0 1 12.611328 7.5234375 A 3.5 3.5 0 0 1 12.822266 7.2460938 A 3.5 3.5 0 0 1 13.0625 6.9882812 A 3.5 3.5 0 0 1 13.324219 6.7578125 A 3.5 3.5 0 0 1 13.609375 6.5546875 A 3.5 3.5 0 0 1 13.912109 6.3808594 A 3.5 3.5 0 0 1 14.232422 6.2382812 A 3.5 3.5 0 0 1 14.564453 6.1269531 A 3.5 3.5 0 0 1 14.904297 6.0507812 A 3.5 3.5 0 0 1 15.251953 6.0078125 A 3.5 3.5 0 0 1 15.5 6 z "
       id="path4466"
       transform="translate(0,-11)" />
  </g>
</svg>
