<svg height="20" viewBox="0 0 20 20" width="20" xmlns="http://www.w3.org/2000/svg"><path d="m15.5 5a4.5 4.5 0 0 0 -4.5 4.5 4.5 4.5 0 0 0  4.5 4.5 4.5 4.5 0 0 0  4.5-4.5 4.5 4.5 0 0 0 -4.5-4.5zm0 1a3.5 3.5 0 0 1  .349609.0175781 3.5 3.5 0 0 1  .345703.0527344 3.5 3.5 0 0 1  .339844.0859375 3.5 3.5 0 0 1  .328125.1191406 3.5 3.5 0 0 1  .314453.1523438 3.5 3.5 0 0 1  .298828.1835937 3.5 3.5 0 0 1  .277344.2109375 3.5 3.5 0 0 1  .257813.2402344 3.5 3.5 0 0 1  .230469.2617188 3.5 3.5 0 0 1  .203124.2851562 3.5 3.5 0 0 1  .173829.3027344 3.5 3.5 0 0 1  .142578.3203125 3.5 3.5 0 0 1  .111328.3320312 3.5 3.5 0 0 1  .076172.3398438 3.5 3.5 0 0 1  .042969.3476562 3.5 3.5 0 0 1  .007812.2480469 3.5 3.5 0 0 1 -.017578.3496094 3.5 3.5 0 0 1 -.052734.3457026 3.5 3.5 0 0 1 -.085938.339844 3.5 3.5 0 0 1 -.119141.328125 3.5 3.5 0 0 1 -.152343.314453 3.5 3.5 0 0 1 -.183594.298828 3.5 3.5 0 0 1 -.210938.277344 3.5 3.5 0 0 1 -.240234.257813 3.5 3.5 0 0 1 -.261719.230469 3.5 3.5 0 0 1 -.285156.203124 3.5 3.5 0 0 1 -.302734.173829 3.5 3.5 0 0 1 -.320313.142578 3.5 3.5 0 0 1 -.332031.111328 3.5 3.5 0 0 1 -.339844.076172 3.5 3.5 0 0 1 -.347656.042969 3.5 3.5 0 0 1 -.248047.007812 3.5 3.5 0 0 1 -.349609-.017578 3.5 3.5 0 0 1 -.345703-.052734 3.5 3.5 0 0 1 -.339844-.085938 3.5 3.5 0 0 1 -.328125-.119141 3.5 3.5 0 0 1 -.314453-.152343 3.5 3.5 0 0 1 -.298828-.183594 3.5 3.5 0 0 1 -.277344-.210938 3.5 3.5 0 0 1 -.257813-.240234 3.5 3.5 0 0 1 -.230469-.261719 3.5 3.5 0 0 1 -.203124-.285156 3.5 3.5 0 0 1 -.173829-.302734 3.5 3.5 0 0 1 -.142578-.320313 3.5 3.5 0 0 1 -.111328-.332031 3.5 3.5 0 0 1 -.076172-.339844 3.5 3.5 0 0 1 -.042969-.3476561 3.5 3.5 0 0 1 -.007812-.2480469 3.5 3.5 0 0 1  .017578-.3496094 3.5 3.5 0 0 1  .052734-.3457031 3.5 3.5 0 0 1  .085938-.3398437 3.5 3.5 0 0 1  .119141-.328125 3.5 3.5 0 0 1  .152343-.3144532 3.5 3.5 0 0 1  .183594-.2988281 3.5 3.5 0 0 1  .210938-.2773437 3.5 3.5 0 0 1  .240234-.2578126 3.5 3.5 0 0 1  .261719-.2304687 3.5 3.5 0 0 1  .285156-.203125 3.5 3.5 0 0 1  .302734-.1738281 3.5 3.5 0 0 1  .320313-.1425782 3.5 3.5 0 0 1  .332031-.1113281 3.5 3.5 0 0 1  .339844-.0761719 3.5 3.5 0 0 1  .347656-.0429687 3.5 3.5 0 0 1  .248047-.0078125z" fill="#484848"/></svg>