<?xml version="1.0" encoding="UTF-8" standalone="no"?>
<!-- Created with Inkscape (http://www.inkscape.org/) -->

<svg
   xmlns:dc="http://purl.org/dc/elements/1.1/"
   xmlns:cc="http://creativecommons.org/ns#"
   xmlns:rdf="http://www.w3.org/1999/02/22-rdf-syntax-ns#"
   xmlns:svg="http://www.w3.org/2000/svg"
   xmlns="http://www.w3.org/2000/svg"
   xmlns:sodipodi="http://sodipodi.sourceforge.net/DTD/sodipodi-0.dtd"
   xmlns:inkscape="http://www.inkscape.org/namespaces/inkscape"
   id="svg2"
   version="1.1"
   inkscape:version="0.91 r"
   width="12"
   height="12"
   viewBox="0 0 12 12"
   sodipodi:docname="unchecked.svg">
  <metadata
     id="metadata8">
    <rdf:RDF>
      <cc:Work
         rdf:about="">
        <dc:format>image/svg+xml</dc:format>
        <dc:type
           rdf:resource="http://purl.org/dc/dcmitype/StillImage" />
        <dc:title></dc:title>
      </cc:Work>
    </rdf:RDF>
  </metadata>
  <defs
     id="defs6">
    <marker
       inkscape:stockid="Arrow1Mstart"
       orient="auto"
       refY="0"
       refX="0"
       id="Arrow1Mstart"
       style="overflow:visible"
       inkscape:isstock="true">
      <path
         id="path4194"
         d="M 0,0 5,-5 -12.5,0 5,5 0,0 Z"
         style="fill-rule:evenodd;stroke:#000000;stroke-width:1pt"
         transform="matrix(0.4,0,0,0.4,4,0)"
         inkscape:connector-curvature="0" />
    </marker>
    <marker
       inkscape:stockid="StopL"
       orient="auto"
       refY="0"
       refX="0"
       id="StopL"
       style="overflow:visible"
       inkscape:isstock="true">
      <path
         id="path4357"
         d="M 0,5.65 0,-5.65"
         style="fill:none;fill-opacity:0.75;fill-rule:evenodd;stroke:#000000;stroke-width:1pt"
         transform="scale(0.8,0.8)"
         inkscape:connector-curvature="0" />
    </marker>
  </defs>
  <sodipodi:namedview
     pagecolor="#ffffff"
     bordercolor="#666666"
     borderopacity="1"
     objecttolerance="10"
     gridtolerance="10"
     guidetolerance="10"
     inkscape:pageopacity="0"
     inkscape:pageshadow="2"
     inkscape:window-width="1680"
     inkscape:window-height="1026"
     id="namedview4"
     showgrid="true"
     showguides="true"
     inkscape:guide-bbox="true"
     inkscape:snap-object-midpoints="true"
     inkscape:snap-bbox="true"
     inkscape:snap-bbox-edge-midpoints="true"
     inkscape:zoom="26.222222"
     inkscape:cx="4"
     inkscape:cy="4.5"
     inkscape:window-x="0"
     inkscape:window-y="24"
     inkscape:window-maximized="1"
     inkscape:current-layer="layer1"
     showborder="true"
     inkscape:bbox-nodes="true">
    <sodipodi:guide
       position="0,4.5"
       orientation="0,1"
       id="guide4138" />
    <inkscape:grid
       type="xygrid"
       id="grid4182" />
  </sodipodi:namedview>
  <g
     inkscape:groupmode="layer"
     id="layer1"
     inkscape:label="Layer 1"
     style="display:inline"
     transform="translate(0,3)">
    <path
       style="color:#000000;display:inline;overflow:visible;visibility:visible;opacity:1;fill:#484848;fill-opacity:1;fill-rule:nonzero;stroke:none;stroke-width:1;stroke-linecap:butt;stroke-linejoin:miter;stroke-miterlimit:4;stroke-dasharray:none;stroke-opacity:1;marker:none;enable-background:accumulate"
       d="M 6 0 A 6 6 0 0 0 0 6 A 6 6 0 0 0 6 12 A 6 6 0 0 0 12 6 A 6 6 0 0 0 6 0 z M 6 1 A 5 5 0 0 1 6.5 1.0253906 A 5 5 0 0 1 6.9941406 1.0996094 A 5 5 0 0 1 7.4785156 1.2226562 A 5 5 0 0 1 7.9472656 1.3945312 A 5 5 0 0 1 8.3964844 1.6113281 A 5 5 0 0 1 8.8222656 1.8730469 A 5 5 0 0 1 9.2207031 2.1757812 A 5 5 0 0 1 9.5859375 2.515625 A 5 5 0 0 1 9.9160156 2.8925781 A 5 5 0 0 1 10.207031 3.2988281 A 5 5 0 0 1 10.455078 3.7324219 A 5 5 0 0 1 10.660156 4.1875 A 5 5 0 0 1 10.818359 4.6621094 A 5 5 0 0 1 10.927734 5.1503906 A 5 5 0 0 1 10.988281 5.6464844 A 5 5 0 0 1 11 6 A 5 5 0 0 1 10.974609 6.5 A 5 5 0 0 1 10.900391 6.9941406 A 5 5 0 0 1 10.777344 7.4785156 A 5 5 0 0 1 10.605469 7.9472656 A 5 5 0 0 1 10.388672 8.3964844 A 5 5 0 0 1 10.126953 8.8222656 A 5 5 0 0 1 9.8242188 9.2207031 A 5 5 0 0 1 9.484375 9.5859375 A 5 5 0 0 1 9.1074219 9.9160156 A 5 5 0 0 1 8.7011719 10.207031 A 5 5 0 0 1 8.2675781 10.455078 A 5 5 0 0 1 7.8125 10.660156 A 5 5 0 0 1 7.3378906 10.818359 A 5 5 0 0 1 6.8496094 10.927734 A 5 5 0 0 1 6.3535156 10.988281 A 5 5 0 0 1 6 11 A 5 5 0 0 1 5.5 10.974609 A 5 5 0 0 1 5.0058594 10.900391 A 5 5 0 0 1 4.5214844 10.777344 A 5 5 0 0 1 4.0527344 10.605469 A 5 5 0 0 1 3.6035156 10.388672 A 5 5 0 0 1 3.1777344 10.126953 A 5 5 0 0 1 2.7792969 9.8242188 A 5 5 0 0 1 2.4140625 9.484375 A 5 5 0 0 1 2.0839844 9.1074219 A 5 5 0 0 1 1.7929688 8.7011719 A 5 5 0 0 1 1.5449219 8.2675781 A 5 5 0 0 1 1.3398438 7.8125 A 5 5 0 0 1 1.1816406 7.3378906 A 5 5 0 0 1 1.0722656 6.8496094 A 5 5 0 0 1 1.0117188 6.3535156 A 5 5 0 0 1 1 6 A 5 5 0 0 1 1.0253906 5.5 A 5 5 0 0 1 1.0996094 5.0058594 A 5 5 0 0 1 1.2226562 4.5214844 A 5 5 0 0 1 1.3945312 4.0527344 A 5 5 0 0 1 1.6113281 3.6035156 A 5 5 0 0 1 1.8730469 3.1777344 A 5 5 0 0 1 2.1757812 2.7792969 A 5 5 0 0 1 2.515625 2.4140625 A 5 5 0 0 1 2.8925781 2.0839844 A 5 5 0 0 1 3.2988281 1.7929688 A 5 5 0 0 1 3.7324219 1.5449219 A 5 5 0 0 1 4.1875 1.3398438 A 5 5 0 0 1 4.6621094 1.1816406 A 5 5 0 0 1 5.1503906 1.0722656 A 5 5 0 0 1 5.6464844 1.0117188 A 5 5 0 0 1 6 1 z "
       id="path4466"
       transform="translate(0,-3)" />
  </g>
</svg>
