<?xml version="1.0" encoding="UTF-8" standalone="no"?>
<!-- Created with Inkscape (http://www.inkscape.org/) -->

<svg
   xmlns:dc="http://purl.org/dc/elements/1.1/"
   xmlns:cc="http://creativecommons.org/ns#"
   xmlns:rdf="http://www.w3.org/1999/02/22-rdf-syntax-ns#"
   xmlns:svg="http://www.w3.org/2000/svg"
   xmlns="http://www.w3.org/2000/svg"
   xmlns:sodipodi="http://sodipodi.sourceforge.net/DTD/sodipodi-0.dtd"
   xmlns:inkscape="http://www.inkscape.org/namespaces/inkscape"
   width="200"
   height="45"
   viewBox="0 0 199.99999 44.999999"
   id="svg12493"
   version="1.1"
   inkscape:version="0.91 r"
   sodipodi:docname="bg_3_slider.svg">
  <defs
     id="defs12495" />
  <sodipodi:namedview
     id="base"
     pagecolor="#ffffff"
     bordercolor="#666666"
     borderopacity="1.0"
     inkscape:pageopacity="0.0"
     inkscape:pageshadow="2"
     inkscape:zoom="2.6353376"
     inkscape:cx="75.119137"
     inkscape:cy="-62.491316"
     inkscape:document-units="px"
     inkscape:current-layer="layer1"
     showgrid="false"
     units="px"
     inkscape:window-width="1680"
     inkscape:window-height="1026"
     inkscape:window-x="0"
     inkscape:window-y="24"
     inkscape:window-maximized="1" />
  <metadata
     id="metadata12498">
    <rdf:RDF>
      <cc:Work
         rdf:about="">
        <dc:format>image/svg+xml</dc:format>
        <dc:type
           rdf:resource="http://purl.org/dc/dcmitype/StillImage" />
        <dc:title></dc:title>
      </cc:Work>
    </rdf:RDF>
  </metadata>
  <g
     inkscape:label="Ebene 1"
     inkscape:groupmode="layer"
     id="layer1"
     transform="translate(0,-1007.3622)">
    <path
       style="color:#000000;display:inline;overflow:visible;visibility:visible;fill:#3d3d3d;fill-opacity:1;fill-rule:nonzero;stroke:none;stroke-width:2;marker:none;enable-background:accumulate"
       d="m 5.3595605e-5,1013.3622 0,16 18.999999404395,0 0,-16 -18.999999404395,0 z"
       id="path17837"
       inkscape:connector-curvature="0" />
    <path
       style="color:#000000;display:inline;overflow:visible;visibility:visible;fill:#3d3d3d;fill-opacity:1;fill-rule:nonzero;stroke:none;stroke-width:2;marker:none;enable-background:accumulate"
       d="m 20.000053,1013.3622 0,16 19,0 0,-16 -19,0 z"
       id="path17835"
       inkscape:connector-curvature="0" />
    <path
       style="color:#000000;display:inline;overflow:visible;visibility:visible;fill:#3d3d3d;fill-opacity:1;fill-rule:nonzero;stroke:none;stroke-width:2;marker:none;enable-background:accumulate"
       d="m 40.000053,1013.3622 0,16 19,0 0,-16 -19,0 z"
       id="path17833"
       inkscape:connector-curvature="0" />
    <path
       style="color:#000000;display:inline;overflow:visible;visibility:visible;fill:#3d3d3d;fill-opacity:1;fill-rule:nonzero;stroke:none;stroke-width:2;marker:none;enable-background:accumulate"
       d="m 60.000053,1013.3622 0,16 19,0 0,-16 -19,0 z"
       id="path17831"
       inkscape:connector-curvature="0" />
    <path
       style="color:#000000;display:inline;overflow:visible;visibility:visible;fill:#3d3d3d;fill-opacity:1;fill-rule:nonzero;stroke:none;stroke-width:2;marker:none;enable-background:accumulate"
       d="m 80.00005,1013.3622 0,16 19,0 0,-16 -19,0 z"
       id="path17829"
       inkscape:connector-curvature="0" />
    <path
       style="color:#000000;display:inline;overflow:visible;visibility:visible;fill:#6b6b6b;fill-opacity:1;fill-rule:nonzero;stroke:none;stroke-width:2;marker:none;enable-background:accumulate"
       d="m 101.00005,1013.3622 0,16 19,0 0,-16 -19,0 z"
       id="path17827"
       inkscape:connector-curvature="0" />
    <path
       style="color:#000000;display:inline;overflow:visible;visibility:visible;fill:#6b6b6b;fill-opacity:1;fill-rule:nonzero;stroke:none;stroke-width:2;marker:none;enable-background:accumulate"
       d="m 121.00005,1013.3622 0,16 19,0 0,-16 -19,0 z"
       id="path17825"
       inkscape:connector-curvature="0" />
    <path
       style="color:#000000;display:inline;overflow:visible;visibility:visible;fill:#6b6b6b;fill-opacity:1;fill-rule:nonzero;stroke:none;stroke-width:2;marker:none;enable-background:accumulate"
       d="m 141.00005,1013.3622 0,16 19,0 0,-16 -19,0 z"
       id="path17823"
       inkscape:connector-curvature="0" />
    <path
       style="color:#000000;display:inline;overflow:visible;visibility:visible;fill:#6b6b6b;fill-opacity:1;fill-rule:nonzero;stroke:none;stroke-width:2;marker:none;enable-background:accumulate"
       d="m 161.00005,1013.3622 0,16 19,0 0,-16 -19,0 z"
       id="path17821"
       inkscape:connector-curvature="0" />
    <path
       style="color:#000000;display:inline;overflow:visible;visibility:visible;fill:#6b6b6b;fill-opacity:1;fill-rule:nonzero;stroke:none;stroke-width:2;marker:none;enable-background:accumulate"
       d="m 181.00005,1013.3622 0,16 19,0 0,-16 -19,0 z"
       id="path17819"
       inkscape:connector-curvature="0" />
    <path
       style="color:#000000;display:inline;overflow:visible;visibility:visible;fill:#6b6b6b;fill-opacity:1;fill-rule:nonzero;stroke:none;stroke-width:2;marker:none;enable-background:accumulate"
       d="m 5.3595605e-5,1031.3622 0,16 18.999999404395,0 0,-16 -18.999999404395,0 z"
       id="path17811"
       inkscape:connector-curvature="0" />
    <path
       style="color:#000000;display:inline;overflow:visible;visibility:visible;fill:#6b6b6b;fill-opacity:1;fill-rule:nonzero;stroke:none;stroke-width:2;marker:none;enable-background:accumulate"
       d="m 20.000053,1031.3622 0,16 19,0 0,-16 -19,0 z"
       id="path17809"
       inkscape:connector-curvature="0" />
    <path
       style="color:#000000;display:inline;overflow:visible;visibility:visible;fill:#6b6b6b;fill-opacity:1;fill-rule:nonzero;stroke:none;stroke-width:2;marker:none;enable-background:accumulate"
       d="m 40.000053,1031.3622 0,16 19,0 0,-16 -19,0 z"
       id="path17807"
       inkscape:connector-curvature="0" />
    <path
       style="color:#000000;display:inline;overflow:visible;visibility:visible;fill:#6b6b6b;fill-opacity:1;fill-rule:nonzero;stroke:none;stroke-width:2;marker:none;enable-background:accumulate"
       d="m 60.000053,1031.3622 0,16 19,0 0,-16 -19,0 z"
       id="path17805"
       inkscape:connector-curvature="0" />
    <path
       style="color:#000000;display:inline;overflow:visible;visibility:visible;fill:#6b6b6b;fill-opacity:1;fill-rule:nonzero;stroke:none;stroke-width:2;marker:none;enable-background:accumulate"
       d="m 80.00005,1031.3622 0,16 19,0 0,-16 -19,0 z"
       id="path17803"
       inkscape:connector-curvature="0" />
    <path
       style="color:#000000;display:inline;overflow:visible;visibility:visible;fill:#3d3d3d;fill-opacity:1;fill-rule:nonzero;stroke:none;stroke-width:2;marker:none;enable-background:accumulate"
       d="m 101.00005,1031.3622 0,16 19,0 0,-16 -19,0 z"
       id="path17801"
       inkscape:connector-curvature="0" />
    <path
       style="color:#000000;display:inline;overflow:visible;visibility:visible;fill:#3d3d3d;fill-opacity:1;fill-rule:nonzero;stroke:none;stroke-width:2;marker:none;enable-background:accumulate"
       d="m 121.00005,1031.3622 0,16 19,0 0,-16 -19,0 z"
       id="path17799"
       inkscape:connector-curvature="0" />
    <path
       style="color:#000000;display:inline;overflow:visible;visibility:visible;fill:#3d3d3d;fill-opacity:1;fill-rule:nonzero;stroke:none;stroke-width:2;marker:none;enable-background:accumulate"
       d="m 141.00005,1031.3622 0,16 19,0 0,-16 -19,0 z"
       id="path17797"
       inkscape:connector-curvature="0" />
    <path
       style="color:#000000;display:inline;overflow:visible;visibility:visible;fill:#3d3d3d;fill-opacity:1;fill-rule:nonzero;stroke:none;stroke-width:2;marker:none;enable-background:accumulate"
       d="m 161.00005,1031.3622 0,16 19,0 0,-16 -19,0 z"
       id="path17795"
       inkscape:connector-curvature="0" />
    <path
       style="color:#000000;display:inline;overflow:visible;visibility:visible;fill:#3d3d3d;fill-opacity:1;fill-rule:nonzero;stroke:none;stroke-width:2;marker:none;enable-background:accumulate"
       d="m 181.00005,1031.3622 0,16 19,0 0,-16 -19,0 z"
       id="path17793"
       inkscape:connector-curvature="0" />
    <path
       style="color:#000000;display:inline;overflow:visible;visibility:visible;fill:#878787;fill-opacity:1;fill-rule:nonzero;stroke:none;stroke-width:2;marker:none;enable-background:accumulate"
       d="m 99.00005,1013.5185 -19,3.25 0,27.1875 19,3.25 0,-33.6875 z m 2,0 0,33.6875 19,-3.25 0,-27.1875 -19,-3.25 z m -21.999997,3.4062 -19,3.25 0,20.375 19,3.25 0,-26.875 z m 41.999997,0 0,26.875 19,-3.25 0,-20.375 -19,-3.25 z m -61.999997,3.4063 -19,3.2187 0,13.625 19,3.2188 0,-20.0625 z m 81.999997,0 0,20.0625 19,-3.2188 0,-13.625 -19,-3.2187 z m -101.999997,3.4062 -19,3.2188 0,6.8125 19,3.2187 0,-13.25 z m 121.999997,0 0,13.25 19,-3.2187 0,-6.8125 -19,-3.2188 z M 19.000053,1027.1435 5.3595605e-5,1030.3622 19.000053,1033.581 l 0,-6.4375 z m 161.999997,0 0,6.4375 19,-3.2188 -19,-3.2187 z"
       id="rect17642"
       inkscape:connector-curvature="0" />
    <rect
       style="color:#000000;display:inline;overflow:visible;visibility:visible;fill:#000000;fill-opacity:1;fill-rule:nonzero;stroke:none;stroke-width:0;stroke-miterlimit:4;stroke-dasharray:none;marker:none;enable-background:accumulate"
       id="rect17386"
       width="3.9999998"
       height="200"
       x="1028.3622"
       y="-200"
       rx="1.5"
       ry="0"
       transform="matrix(0,1,-1,0,0,0)" />
  </g>
</svg>
