<svg height="45" viewBox="0 0 199.99999 44.999999" width="200" xmlns="http://www.w3.org/2000/svg"><g transform="translate(0 -1007.3622)"><g fill="#3d3d3d"><path d="m .0000536 1013.3622v16h18.9999994v-16h-18.9999994z"/><path d="m20.000053 1013.3622v16h19v-16z"/><path d="m40.000053 1013.3622v16h19v-16z"/><path d="m60.000053 1013.3622v16h19v-16z"/><path d="m80.00005 1013.3622v16h19v-16z"/></g><g fill="#6b6b6b"><path d="m101.00005 1013.3622v16h19v-16z"/><path d="m121.00005 1013.3622v16h19v-16z"/><path d="m141.00005 1013.3622v16h19v-16z"/><path d="m161.00005 1013.3622v16h19v-16z"/><path d="m181.00005 1013.3622v16h19v-16z"/><path d="m .0000536 1031.3622v16h18.9999994v-16h-18.9999994z"/><path d="m20.000053 1031.3622v16h19v-16z"/><path d="m40.000053 1031.3622v16h19v-16z"/><path d="m60.000053 1031.3622v16h19v-16z"/><path d="m80.00005 1031.3622v16h19v-16z"/></g><g fill="#3d3d3d"><path d="m101.00005 1031.3622v16h19v-16z"/><path d="m121.00005 1031.3622v16h19v-16z"/><path d="m141.00005 1031.3622v16h19v-16z"/><path d="m161.00005 1031.3622v16h19v-16z"/><path d="m181.00005 1031.3622v16h19v-16z"/></g><path d="m99.00005 1013.5185-19 3.25v27.1875l19 3.25zm2 0v33.6875l19-3.25v-27.1875zm-21.999997 3.4062-19 3.25v20.375l19 3.25zm41.999997 0v26.875l19-3.25v-20.375zm-61.999997 3.4063-19 3.2187v13.625l19 3.2188zm81.999997 0v20.0625l19-3.2188v-13.625zm-101.999997 3.4062-19 3.2188v6.8125l19 3.2187zm121.999997 0v13.25l19-3.2187v-6.8125zm-141.999997 3.4063-18.9999994 3.2187 18.9999994 3.2188zm161.999997 0v6.4375l19-3.2188z" fill="#878787"/><rect height="200" rx="1.5" ry="0" transform="rotate(90)" width="3.9999998" x="1028.3622" y="-200"/></g></svg>