<?xml version="1.0" encoding="UTF-8" standalone="no"?>
<svg
   xmlns:dc="http://purl.org/dc/elements/1.1/"
   xmlns:cc="http://creativecommons.org/ns#"
   xmlns:rdf="http://www.w3.org/1999/02/22-rdf-syntax-ns#"
   xmlns:svg="http://www.w3.org/2000/svg"
   xmlns="http://www.w3.org/2000/svg"
   xmlns:sodipodi="http://sodipodi.sourceforge.net/DTD/sodipodi-0.dtd"
   xmlns:inkscape="http://www.inkscape.org/namespaces/inkscape"
   height="22"
   viewBox="0 0 134 22"
   width="134"
   version="1.1"
   id="svg6"
   sodipodi:docname="headphones.svg"
   inkscape:version="0.92.2 5c3e80d, 2017-08-06">
  <metadata
     id="metadata12">
    <rdf:RDF>
      <cc:Work
         rdf:about="">
        <dc:format>image/svg+xml</dc:format>
        <dc:type
           rdf:resource="http://purl.org/dc/dcmitype/StillImage" />
        <dc:title />
      </cc:Work>
    </rdf:RDF>
  </metadata>
  <defs
     id="defs10" />
  <sodipodi:namedview
     pagecolor="#ffffff"
     bordercolor="#666666"
     borderopacity="1"
     objecttolerance="10"
     gridtolerance="10"
     guidetolerance="10"
     inkscape:pageopacity="0"
     inkscape:pageshadow="2"
     inkscape:window-width="1680"
     inkscape:window-height="1024"
     id="namedview8"
     showgrid="true"
     inkscape:zoom="17.566022"
     inkscape:cx="17.242885"
     inkscape:cy="6.9979487"
     inkscape:window-x="0"
     inkscape:window-y="0"
     inkscape:window-maximized="0"
     inkscape:current-layer="svg6"
     inkscape:snap-global="true">
    <inkscape:grid
       type="xygrid"
       id="grid828" />
  </sodipodi:namedview>
  <g
     transform="matrix(0.03455724,0,0,0.03455724,0,2.9274277)"
     id="g4"
     style="stroke-width:28.93749619">
    <path
       inkscape:connector-curvature="0"
       d="M 467.2,235.7 C 467.2,173.3 442.9,114.6 398.8,70.5 354.7,26.4 296,2.1 233.6,2.1 171.2,2.1 112.5,26.4 68.4,70.5 24.3,114.6 0,173.3 0,235.7 v 110.6 c 0,62.5 50.9,113.4 113.4,113.4 7.5,0 13.5,-6 13.5,-13.5 V 246.5 c 0,-7.5 -6,-13.5 -13.5,-13.5 -34.6,0 -65.6,15.5 -86.4,40 V 235.7 C 27,121.8 119.7,29.1 233.6,29.1 c 113.9,0 206.6,92.7 206.6,206.6 0,0.9 0.1,1.8 0.3,2.7 -0.2,0.9 -0.3,1.8 -0.3,2.7 v 37.3 c -20.8,-24.5 -51.8,-40 -86.4,-40 -7.5,0 -13.5,6 -13.5,13.5 v 199.7 c 0,7.5 6,13.5 13.5,13.5 62.5,0 113.4,-50.9 113.4,-113.4 V 241.1 c 0,-0.9 -0.1,-1.8 -0.3,-2.7 0.2,-0.9 0.3,-1.8 0.3,-2.7 z M 99.8,261 V 431.6 C 58.6,425.1 26.9,389.3 26.9,346.3 27,303.3 58.6,267.5 99.8,261 Z M 367.4,437 V 266.4 c 41.2,6.5 72.9,42.3 72.9,85.3 -0.1,43.1 -31.7,78.8 -72.9,85.3 z"
       id="path2"
       style="stroke-width:28.93749619" />
  </g>
</svg>
