<?xml version="1.0" encoding="UTF-8" standalone="no"?>
<svg
   xmlns:dc="http://purl.org/dc/elements/1.1/"
   xmlns:cc="http://creativecommons.org/ns#"
   xmlns:rdf="http://www.w3.org/1999/02/22-rdf-syntax-ns#"
   xmlns:svg="http://www.w3.org/2000/svg"
   xmlns="http://www.w3.org/2000/svg"
   xmlns:sodipodi="http://sodipodi.sourceforge.net/DTD/sodipodi-0.dtd"
   xmlns:inkscape="http://www.inkscape.org/namespaces/inkscape"
   height="22"
   viewBox="0 0 90 22"
   width="90"
   version="1.1"
   id="svg6"
   sodipodi:docname="main.svg"
   inkscape:version="0.92.2 5c3e80d, 2017-08-06">
  <metadata
     id="metadata12">
    <rdf:RDF>
      <cc:Work
         rdf:about="">
        <dc:format>image/svg+xml</dc:format>
        <dc:type
           rdf:resource="http://purl.org/dc/dcmitype/StillImage" />
        <dc:title></dc:title>
      </cc:Work>
    </rdf:RDF>
  </metadata>
  <defs
     id="defs10" />
  <sodipodi:namedview
     pagecolor="#ffffff"
     bordercolor="#666666"
     borderopacity="1"
     objecttolerance="10"
     gridtolerance="10"
     guidetolerance="10"
     inkscape:pageopacity="0"
     inkscape:pageshadow="2"
     inkscape:window-width="1680"
     inkscape:window-height="1024"
     id="namedview8"
     showgrid="true"
     inkscape:zoom="35.132042"
     inkscape:cx="13.081502"
     inkscape:cy="10.718051"
     inkscape:window-x="0"
     inkscape:window-y="0"
     inkscape:window-maximized="0"
     inkscape:current-layer="svg6"
     inkscape:snap-global="true"
     inkscape:snap-bbox="true"
     inkscape:snap-bbox-midpoints="true"
     inkscape:snap-bbox-edge-midpoints="true"
     inkscape:bbox-nodes="true"
     inkscape:snap-intersection-paths="true"
     inkscape:object-paths="true"
     inkscape:snap-midpoints="true"
     inkscape:snap-smooth-nodes="true"
     inkscape:snap-object-midpoints="true"
     inkscape:snap-center="true">
    <inkscape:grid
       type="xygrid"
       id="grid828" />
  </sodipodi:namedview>
  <g
     transform="matrix(0.33748421,0,0,0.33748421,0.00380806,0.8754105)"
     id="g10"
     style="stroke-width:2.96310139">
    <path
       style="stroke-width:2.96310139"
       d="m 26.854195,7.358 c -1.753625,0.070207 -2.787128,1.6528436 -4.104198,2.5959437 -3.705474,3.1356443 -7.410948,6.2712883 -11.116421,9.4069323 -3.5437614,0 -7.0875231,0 -10.6312846,0 -1.37229467,0.137743 -0.92597856,1.696937 -1.00120421,2.643075 0,5.784026 0,11.568051 0,17.352075 0.13530274,1.375825 1.70141611,0.924067 2.64886201,1.000305 2.9868259,-0.0016 5.9736515,-0.0033 8.9604778,-0.0047 4.572417,4.182904 9.110443,8.407199 13.704345,12.564244 2.076799,1.392613 5.042264,-0.615033 4.68772,-3.043778 0,-13.119941 0,-26.239883 0,-39.359825 0.04806,-1.6979131 -1.446736,-3.2056168 -3.148297,-3.1540828 z m 0.17362,2.0081959 c 1.373767,0.3058365 0.879872,1.8878091 0.972268,2.9033881 0,12.643953 0,25.287905 0,37.931856 -0.11826,1.663465 -1.920328,1.149293 -2.550502,0.149815 -4.150067,-3.813622 -8.300133,-7.627246 -12.4502,-11.440867 0,-6.030374 0,-12.060751 0,-18.091125 4.467802,-3.779112 8.935603,-7.558224 13.403405,-11.337336 L 26.735363,9.3697736 Z M 1.997709,21.357498 c 3.0016837,0 6.0033672,0 9.005051,0 0,5.665774 0,11.33155 0,16.997323 -3.0016838,0 -6.0033673,0 -9.005051,0 0,-5.665773 0,-11.331549 0,-16.997323 z"
       id="path2"
       inkscape:connector-curvature="0" />
    <path
       inkscape:connector-curvature="0"
       d="m 52.026,29.858 c 0,-8.347 -5.316,-15.76 -13.229,-18.447 -0.522,-0.177 -1.091,0.103 -1.269,0.626 -0.177,0.522 0.103,1.091 0.626,1.269 7.101,2.411 11.872,9.063 11.872,16.553 0,7.483 -4.762,14.136 -11.849,16.554 -0.522,0.178 -0.802,0.746 -0.623,1.27 0.142,0.415 0.53,0.677 0.946,0.677 0.107,0 0.216,-0.017 0.323,-0.054 7.898,-2.695 13.203,-10.108 13.203,-18.448 z"
       id="path4"
       style="stroke-width:2.96310139" />
    <path
       inkscape:connector-curvature="0"
       d="M 44.453,6.374 C 43.945,6.161 43.358,6.395 43.141,6.904 42.926,7.413 43.163,8 43.672,8.216 52.376,11.909 58,20.405 58,29.858 c 0,9.777 -5.894,18.38 -15.015,21.914 -0.515,0.2 -0.771,0.779 -0.571,1.294 0.153,0.396 0.532,0.639 0.933,0.639 0.12,0 0.242,-0.021 0.361,-0.067 C 53.605,49.801 60,40.467 60,29.858 60,19.6 53.897,10.382 44.453,6.374 Z"
       id="path6"
       style="stroke-width:2.96310139" />
    <path
       inkscape:connector-curvature="0"
       d="m 43.026,29.858 c 0,-5.972 -4.009,-11.302 -9.749,-12.962 -0.53,-0.151 -1.084,0.152 -1.238,0.684 -0.153,0.53 0.152,1.085 0.684,1.238 4.889,1.413 8.304,5.953 8.304,11.04 0,5.087 -3.415,9.627 -8.304,11.04 -0.531,0.153 -0.837,0.708 -0.684,1.238 0.127,0.438 0.526,0.723 0.961,0.723 0.092,0 0.185,-0.013 0.277,-0.039 5.741,-1.661 9.749,-6.991 9.749,-12.962 z"
       id="path8"
       style="stroke-width:2.96310139" />
  </g>
</svg>
