<?xml version="1.0" encoding="UTF-8" standalone="no"?>
<svg
   xmlns:dc="http://purl.org/dc/elements/1.1/"
   xmlns:cc="http://creativecommons.org/ns#"
   xmlns:rdf="http://www.w3.org/1999/02/22-rdf-syntax-ns#"
   xmlns:svg="http://www.w3.org/2000/svg"
   xmlns="http://www.w3.org/2000/svg"
   xmlns:sodipodi="http://sodipodi.sourceforge.net/DTD/sodipodi-0.dtd"
   xmlns:inkscape="http://www.inkscape.org/namespaces/inkscape"
   height="22"
   viewBox="0 0 22 22"
   width="22"
   version="1.1"
   id="svg6"
   sodipodi:docname="microphones_2.svg"
   inkscape:version="0.92.2 5c3e80d, 2017-08-06">
  <metadata
     id="metadata12">
    <rdf:RDF>
      <cc:Work
         rdf:about="">
        <dc:format>image/svg+xml</dc:format>
        <dc:type
           rdf:resource="http://purl.org/dc/dcmitype/StillImage" />
        <dc:title></dc:title>
      </cc:Work>
    </rdf:RDF>
  </metadata>
  <defs
     id="defs10" />
  <sodipodi:namedview
     pagecolor="#ffffff"
     bordercolor="#666666"
     borderopacity="1"
     objecttolerance="10"
     gridtolerance="10"
     guidetolerance="10"
     inkscape:pageopacity="0"
     inkscape:pageshadow="2"
     inkscape:window-width="827"
     inkscape:window-height="1010"
     id="namedview8"
     showgrid="true"
     inkscape:zoom="8.7830104"
     inkscape:cx="3.9465797"
     inkscape:cy="10.974227"
     inkscape:window-x="845"
     inkscape:window-y="6"
     inkscape:window-maximized="0"
     inkscape:current-layer="svg6"
     inkscape:snap-global="true">
    <inkscape:grid
       type="xygrid"
       id="grid828" />
  </sodipodi:namedview>
  <path
     style="color:#000000;font-style:normal;font-variant:normal;font-weight:normal;font-stretch:normal;font-size:medium;line-height:normal;font-family:sans-serif;font-variant-ligatures:normal;font-variant-position:normal;font-variant-caps:normal;font-variant-numeric:normal;font-variant-alternates:normal;font-feature-settings:normal;text-indent:0;text-align:start;text-decoration:none;text-decoration-line:none;text-decoration-style:solid;text-decoration-color:#000000;letter-spacing:normal;word-spacing:normal;text-transform:none;writing-mode:lr-tb;direction:ltr;text-orientation:mixed;dominant-baseline:auto;baseline-shift:baseline;text-anchor:start;white-space:normal;shape-padding:0;clip-rule:nonzero;display:inline;overflow:visible;visibility:visible;opacity:1;isolation:auto;mix-blend-mode:normal;color-interpolation:sRGB;color-interpolation-filters:linearRGB;solid-color:#000000;solid-opacity:1;vector-effect:none;fill:#000000;fill-opacity:1;fill-rule:nonzero;stroke:none;stroke-width:1;stroke-linecap:square;stroke-linejoin:miter;stroke-miterlimit:4;stroke-dasharray:none;stroke-dashoffset:0;stroke-opacity:1;color-rendering:auto;image-rendering:auto;shape-rendering:auto;text-rendering:auto;enable-background:accumulate"
     d="m 16.357927,3.4824219 c -2.308526,0 -4.189452,1.8809279 -4.189454,4.1894531 0,0.2531897 0.03284,0.4992071 0.07617,0.7402344 L 1.6704268,15.521484 a 0.50005,0.50005 0 0 0 -0.1347656,0.69336 l 1.5117188,2.25 a 0.50005,0.50005 0 0 0 0.6953124,0.136718 L 14.428239,11.416016 a 0.50005,0.50005 0 0 0 0.03516,-0.02734 c 0.571706,0.293454 1.209577,0.474609 1.894532,0.474609 2.308525,0 4.191406,-1.8828807 4.191406,-4.191406 0,-2.3085252 -1.882881,-4.1894531 -4.191406,-4.1894531 z m 0,1 c 1.768085,0 3.191406,1.421368 3.191406,3.1894531 0,1.7680852 -1.423321,3.191406 -3.191406,3.191406 -1.09754,0 -2.059525,-0.549757 -2.632813,-1.3886716 l -0.02344,-0.035156 C 13.365979,8.9338199 13.168473,8.3270884 13.168473,7.671875 c 0,-1.7680851 1.421368,-3.1894531 3.189454,-3.1894531 z m -3.857422,4.9628906 0.955078,1.4199215 -9.8574218,6.626954 -0.953125,-1.419922 z"
     id="path904"
     inkscape:connector-curvature="0" />
</svg>
