<?xml version="1.0" encoding="UTF-8" standalone="no"?>
<svg
   xmlns:dc="http://purl.org/dc/elements/1.1/"
   xmlns:cc="http://creativecommons.org/ns#"
   xmlns:rdf="http://www.w3.org/1999/02/22-rdf-syntax-ns#"
   xmlns:svg="http://www.w3.org/2000/svg"
   xmlns="http://www.w3.org/2000/svg"
   xmlns:sodipodi="http://sodipodi.sourceforge.net/DTD/sodipodi-0.dtd"
   xmlns:inkscape="http://www.inkscape.org/namespaces/inkscape"
   height="22"
   viewBox="0 0 148 22"
   width="148"
   version="1.1"
   id="svg6"
   sodipodi:docname="microphones.svg"
   inkscape:version="0.92.2 5c3e80d, 2017-08-06">
  <metadata
     id="metadata12">
    <rdf:RDF>
      <cc:Work
         rdf:about="">
        <dc:format>image/svg+xml</dc:format>
        <dc:type
           rdf:resource="http://purl.org/dc/dcmitype/StillImage" />
        <dc:title></dc:title>
      </cc:Work>
    </rdf:RDF>
  </metadata>
  <defs
     id="defs10" />
  <sodipodi:namedview
     pagecolor="#ffffff"
     bordercolor="#666666"
     borderopacity="1"
     objecttolerance="10"
     gridtolerance="10"
     guidetolerance="10"
     inkscape:pageopacity="0"
     inkscape:pageshadow="2"
     inkscape:window-width="1680"
     inkscape:window-height="1024"
     id="namedview8"
     showgrid="true"
     inkscape:zoom="3.1052631"
     inkscape:cx="3.9465797"
     inkscape:cy="10.974227"
     inkscape:window-x="0"
     inkscape:window-y="0"
     inkscape:window-maximized="0"
     inkscape:current-layer="svg6"
     inkscape:snap-global="true">
    <inkscape:grid
       type="xygrid"
       id="grid828" />
  </sodipodi:namedview>
  <path
     style="color:#000000;font-style:normal;font-variant:normal;font-weight:normal;font-stretch:normal;font-size:medium;line-height:normal;font-family:sans-serif;font-variant-ligatures:normal;font-variant-position:normal;font-variant-caps:normal;font-variant-numeric:normal;font-variant-alternates:normal;font-feature-settings:normal;text-indent:0;text-align:start;text-decoration:none;text-decoration-line:none;text-decoration-style:solid;text-decoration-color:#000000;letter-spacing:normal;word-spacing:normal;text-transform:none;writing-mode:lr-tb;direction:ltr;text-orientation:mixed;dominant-baseline:auto;baseline-shift:baseline;text-anchor:start;white-space:normal;shape-padding:0;clip-rule:nonzero;display:inline;overflow:visible;visibility:visible;opacity:1;isolation:auto;mix-blend-mode:normal;color-interpolation:sRGB;color-interpolation-filters:linearRGB;solid-color:#000000;solid-opacity:1;vector-effect:none;fill:#000000;fill-opacity:1;fill-rule:nonzero;stroke:none;stroke-width:1;stroke-linecap:square;stroke-linejoin:miter;stroke-miterlimit:4;stroke-dasharray:none;stroke-dashoffset:0;stroke-opacity:1;color-rendering:auto;image-rendering:auto;shape-rendering:auto;text-rendering:auto;enable-background:accumulate"
     d="M 15.478516 3.4824219 C 13.16999 3.4824219 11.289064 5.3633498 11.289062 7.671875 C 11.289062 7.9250647 11.321901 8.1710821 11.365234 8.4121094 L 0.79101562 15.521484 A 0.50005 0.50005 0 0 0 0.65625 16.214844 L 2.1679688 18.464844 A 0.50005 0.50005 0 0 0 2.8632812 18.601562 L 13.548828 11.416016 A 0.50005 0.50005 0 0 0 13.583984 11.388672 C 14.15569 11.682126 14.793561 11.863281 15.478516 11.863281 C 17.787041 11.863281 19.669922 9.9804003 19.669922 7.671875 C 19.669922 5.3633498 17.787041 3.4824219 15.478516 3.4824219 z M 15.478516 4.4824219 C 17.246601 4.4824219 18.669922 5.9037899 18.669922 7.671875 C 18.669922 9.4399602 17.246601 10.863281 15.478516 10.863281 C 14.380976 10.863281 13.418991 10.313524 12.845703 9.4746094 L 12.822266 9.4394531 C 12.486568 8.9338199 12.289062 8.3270884 12.289062 7.671875 C 12.289062 5.9037899 13.71043 4.4824219 15.478516 4.4824219 z M 11.621094 9.4453125 L 12.576172 10.865234 L 2.71875 17.492188 L 1.765625 16.072266 L 11.621094 9.4453125 z "
     id="path904" />
</svg>
