<?xml version="1.0" encoding="UTF-8" standalone="no"?>
<svg
   xmlns:dc="http://purl.org/dc/elements/1.1/"
   xmlns:cc="http://creativecommons.org/ns#"
   xmlns:rdf="http://www.w3.org/1999/02/22-rdf-syntax-ns#"
   xmlns:svg="http://www.w3.org/2000/svg"
   xmlns="http://www.w3.org/2000/svg"
   xmlns:sodipodi="http://sodipodi.sourceforge.net/DTD/sodipodi-0.dtd"
   xmlns:inkscape="http://www.inkscape.org/namespaces/inkscape"
   height="22"
   viewBox="0 0 118 22"
   width="118"
   version="1.1"
   id="svg6"
   sodipodi:docname="settings.svg"
   inkscape:version="0.92.2 5c3e80d, 2017-08-06">
  <metadata
     id="metadata12">
    <rdf:RDF>
      <cc:Work
         rdf:about="">
        <dc:format>image/svg+xml</dc:format>
        <dc:type
           rdf:resource="http://purl.org/dc/dcmitype/StillImage" />
        <dc:title />
      </cc:Work>
    </rdf:RDF>
  </metadata>
  <defs
     id="defs10" />
  <sodipodi:namedview
     pagecolor="#ffffff"
     bordercolor="#666666"
     borderopacity="1"
     objecttolerance="10"
     gridtolerance="10"
     guidetolerance="10"
     inkscape:pageopacity="0"
     inkscape:pageshadow="2"
     inkscape:window-width="1680"
     inkscape:window-height="1024"
     id="namedview8"
     showgrid="true"
     inkscape:zoom="11.51389"
     inkscape:cx="11.743666"
     inkscape:cy="11.999999"
     inkscape:window-x="0"
     inkscape:window-y="0"
     inkscape:window-maximized="0"
     inkscape:current-layer="g6"
     inkscape:snap-global="false">
    <inkscape:grid
       type="xygrid"
       id="grid828" />
  </sodipodi:namedview>
  <g
     id="g8"
     transform="matrix(0.03154318,-0.03169361,0.03154337,0.03169376,-4.7098606,10.901246)"
     style="fill:none;fill-opacity:1;stroke:#000000;stroke-width:21.15252304;stroke-linecap:square;stroke-linejoin:round;stroke-miterlimit:4;stroke-dasharray:none;stroke-opacity:1"
     inkscape:export-xdpi="96"
     inkscape:export-ydpi="96">
    <g
       id="g6"
       style="fill:none;fill-opacity:1;stroke:#000000;stroke-width:21.15252304;stroke-linecap:square;stroke-linejoin:round;stroke-miterlimit:4;stroke-dasharray:none;stroke-opacity:1">
      <path
         style="fill:none;fill-opacity:1;stroke:#000000;stroke-width:26.83653641;stroke-linecap:square;stroke-linejoin:round;stroke-miterlimit:4;stroke-dasharray:none;stroke-opacity:1"
         d="m 351.26429,120.9383 c -0.87413,-0.87064 -2.06162,-1.32692 -3.28672,-1.40036 -1.22239,-0.0705 -2.45862,0.27167 -3.42951,1.02891 -0.015,0.0112 -0.0422,-0.0112 -0.0568,0 l -24.20714,19.11972 -3.22958,2.54361 c -2.30165,-1.50329 -4.68623,-2.8051 -7.05917,-4.14401 -1.11386,-0.62945 -2.18122,-1.34606 -3.31531,-1.94347 -0.44723,-0.23477 -0.92238,-0.39959 -1.37184,-0.62875 -3.07976,-1.57683 -6.21409,-3.06959 -9.43135,-4.40119 -3.56785,-1.47676 -7.1954,-2.78778 -10.91751,-3.94404 -1.79498,-0.55503 -3.61796,-0.95373 -5.43014,-1.42896 -2.02781,-0.53292 -4.0211,-1.13777 -6.0875,-1.5719 l -4.14408,-34.72434 v -0.05704 c -0.28525,-2.431358 -2.54468,-4.437771 -5.03005,-4.458435 -0.0125,-1.06e-4 -0.016,-0.02868 -0.0284,-0.02857 H 229.4861 c -2.50156,0 -4.75628,2.04316 -5.05863,4.487014 v 0.05703 l -4.11554,34.695721 c -3.85808,0.80956 -7.6544,1.82306 -11.37473,2.97236 -1.91742,0.59217 -3.75274,1.35063 -5.63026,2.02906 -1.94681,0.69915 -3.9121,1.31861 -5.83025,2.11493 -3.5967,1.49303 -7.12707,3.16632 -10.60319,5.00146 -3.49421,1.8469 -6.90905,3.82883 -10.20296,5.97312 l -27.49386,-21.66332 c -1.94886,-1.55552 -4.98876,-1.34231 -6.74486,0.40003 l -24.57863,24.57859 c -0.87921,0.86855 -1.34779,2.10314 -1.42908,3.31515 -0.0824,1.2373 0.23962,2.44869 1.02892,3.42963 0.009,0.0102 0.0215,0.0193 0.0284,0.0284 l 21.63493,27.46506 c -2.17463,3.32766 -4.19304,6.81092 -6.05897,10.34594 -0.20758,0.39464 -0.36838,0.80397 -0.57159,1.2003 -1.61649,3.14082 -3.15695,6.31686 -4.51566,9.60285 -1.50142,3.63087 -2.80424,7.32717 -3.97264,11.11746 -1.14725,3.72208 -2.1646,7.51683 -2.97223,11.37467 l -34.724547,4.08691 c -2.485969,0.27211 -4.494099,2.62285 -4.515622,5.08721 l 0.02857,0.0284 -0.02862,34.72429 0.02857,0.0284 c -0.0075,1.24909 0.497072,2.46113 1.31471,3.37238 0.813312,0.9011 1.914244,1.52355 3.143764,1.65769 l 27.436745,3.2582 7.31652,0.85738 c 0.80762,3.85983 1.82485,7.65276 2.9722,11.37468 0.98828,3.20609 2.14459,6.33885 3.37246,9.43135 0.23029,0.58445 0.38958,1.19017 0.62878,1.77185 0.51761,1.24987 1.15923,2.42877 1.71473,3.6583 2.68335,5.97926 5.71519,11.84781 9.37419,17.43355 l -21.6063,27.43653 -0.0292,0.0292 c -1.56243,1.9341 -1.3765,4.9672 0.40005,6.74478 l 24.57874,24.5785 c 0.87803,0.88843 2.09265,1.36276 3.31513,1.42906 1.2192,0.0788 2.44845,-0.27046 3.42965,-1.02888 0.0149,-0.011 0.0407,0.0112 0.0585,0 l 27.43664,-21.66346 c 0.61268,0.40196 1.26756,0.69772 1.88623,1.08609 3.34426,2.10609 6.77462,4.05792 10.31733,5.85889 0.6968,0.34557 1.41293,0.63968 2.1149,0.97172 3.97856,1.93264 8.06487,3.65323 12.26074,5.17292 5.53384,2.00434 11.20053,3.77984 17.06214,5.00142 l 4.11555,34.69577 c 0.30228,2.47822 2.52851,4.50278 5.03005,4.51557 l 34.80974,-8.2e-4 c 2.5006,0.0135 4.74331,-2.03653 5.03005,-4.51556 l 4.11543,-34.69575 c 6.64451,-1.38479 12.95583,-3.52544 19.14857,-5.94458 v 0.0584 c 0.51414,-0.19401 1.002,-0.45801 1.51479,-0.65729 2.45563,-0.99416 4.9595,-1.87377 7.345,-3.00085 l -0.11417,-0.11414 c 5.39393,-2.43737 10.69536,-5.13089 15.74755,-8.43102 l 27.49382,21.66335 c 1.93894,1.55595 4.97179,1.37295 6.74479,-0.40005 l 24.57867,-24.57854 c 1.74329,-1.7433 1.9559,-4.80432 0.40011,-6.74481 l -21.66386,-27.49511 c 8.30932,-12.73435 14.03447,-26.61454 17.34795,-40.95468 0.21621,-0.9086 0.55048,-1.76839 0.74307,-2.68649 l 34.69594,-4.11546 0.0284,-0.0284 c 0.29036,-0.0299 0.4665,-0.31722 0.74314,-0.40012 2.05924,-0.62022 3.74887,-2.40787 3.74394,-4.60134 l -0.0292,-0.0292 0.0577,-34.75224 c -3e-5,-0.0123 -0.0281,-0.0158 -0.0292,-0.0292 0,-2.46536 -2.0434,-4.75799 -4.51558,-5.02995 l -34.69531,-4.11486 c -0.82503,-3.92373 -1.85501,-7.76307 -3.02946,-11.5462 -0.53176,-1.71901 -1.22416,-3.38682 -1.82908,-5.08717 -0.70667,-1.97528 -1.34406,-3.9869 -2.14353,-5.91601 -0.89266,-2.15406 -1.93887,-4.22332 -2.94368,-6.31603 -0.73022,-1.52078 -1.38434,-3.08618 -2.17208,-4.57279 -0.28506,-0.54072 -0.62123,-1.06292 -0.91454,-1.60041 -1.5883,-2.91034 -3.22591,-5.79671 -5.05867,-8.60257 l 21.69215,-27.46506 c 0.77052,-0.9753 1.0818,-2.22229 1.00021,-3.4582 -0.0677,-1.22164 -0.54752,-2.43765 -1.42903,-3.3152 z"
         id="path12"
         inkscape:connector-curvature="0" />
      <path
         style="fill:none;fill-opacity:1;stroke:#000000;stroke-width:26.83653831;stroke-linecap:square;stroke-linejoin:round;stroke-miterlimit:4;stroke-dasharray:none;stroke-opacity:1"
         d="m 282.67265,214.15063 c 2.40711,2.4071 4.49207,5.02388 6.31284,7.75114 0.84859,1.27237 1.47006,2.69766 2.20292,4.04774 0.82542,1.52466 1.74856,3.00996 2.40598,4.59475 0.87875,2.11402 1.45705,4.36364 2.04601,6.61115 0.24312,0.93124 0.6385,1.82521 0.82774,2.76638 0.65188,3.24481 1.03003,6.5972 1.0292,10.03444 -6.1e-4,2.7899 -0.34032,5.5718 -0.79915,8.33119 -0.20051,1.16316 -0.47455,2.3027 -0.7511,3.43885 -2.10124,8.79702 -6.42607,17.17714 -13.29167,24.0427 -3.393,3.39298 -7.1686,6.15502 -11.16216,8.38056 -3.22479,1.80495 -5.63655,2.69872 -10.33278,4.36336 -4.54984,1.34942 -9.34536,2.08109 -14.33363,2.08229 -9.79683,0.002 -18.85401,-2.89973 -26.60118,-7.715 -0.86169,-0.53158 -1.72795,-1.03762 -2.56297,-1.62498 -2.34679,-1.66205 -4.5984,-3.44074 -6.62603,-5.46899 -2.41268,-2.41267 -4.50511,-5.03291 -6.3285,-7.76674 -0.79459,-1.19194 -1.36907,-2.52174 -2.06231,-3.78206 -0.88265,-1.60916 -1.852,-3.18371 -2.54656,-4.86046 -0.79699,-1.92023 -1.29971,-3.98618 -1.85858,-6.01725 -0.31335,-1.14489 -0.79931,-2.24684 -1.03079,-3.40717 -0.64537,-3.22981 -0.99877,-6.55197 -0.99795,-9.97193 8.2e-4,-3.39956 0.37919,-6.71355 1.01837,-9.92553 0.3058,-1.53142 0.89701,-2.9985 1.3453,-4.50188 0.48873,-1.6344 0.85701,-3.3165 1.5017,-4.87703 0.75307,-1.8243 1.80825,-3.5398 2.78349,-5.28373 0.64205,-1.14644 1.15011,-2.3812 1.87649,-3.4704 1.82216,-2.72778 3.92412,-5.33049 6.3322,-7.73855 2.40853,-2.40852 5.01051,-4.50971 7.7386,-6.33215 1.0889,-0.72666 2.32423,-1.23418 3.4704,-1.87648 1.74409,-0.97537 3.45936,-2.03033 5.28377,-2.78348 1.31353,-0.54297 2.72904,-0.84978 4.09549,-1.28268 1.78146,-0.56262 3.53932,-1.21902 5.36162,-1.57996 3.18383,-0.62794 6.47949,-1.0019 9.84743,-1.00271 3.42024,-8.2e-4 6.742,0.35227 9.97199,0.99795 1.16031,0.23151 2.26233,0.7174 3.40719,1.03078 2.03118,0.55911 4.09698,1.06125 6.01728,1.85857 1.67671,0.69461 3.25137,1.66385 4.86046,2.54658 1.26036,0.69351 2.5901,1.26743 3.78208,2.0623 2.73382,1.8234 5.35413,3.91577 7.76681,6.32843 z"
         id="path4"
         inkscape:connector-curvature="0" />
    </g>
  </g>
</svg>
